# AST/ASF file generated using VICON BodyLanguage
# -----------------------------------------------
:version 1.10
:name VICON
:units
  mass 1.0
  length 0.45
  angle deg
:documentation
   .ast/.asf automatically generated from VICON data using
   VICON BodyBuilder and BodyLanguage model FoxedUp or BRILLIANT.MOD
:root
   order TX TY TZ RX RY RZ
   axis XYZ
   position 0 0 0  
   orientation 0 0 0 
:bonedata
  begin
     id 1 
     name lhipjoint
     direction 0.643824 -0.71708 0.266994 
     length 2.52133 
     axis 0 0 0  XYZ
  end
  begin
     id 2 
     name lfemur
     direction 0.34202 -0.939693 0  
     length 7.51824  
     axis 0 0 20  XYZ
    dof rx ry rz
    limits (-160.0 20.0)
           (-70.0 70.0)
           (-60.0 70.0)
  end
  begin
     id 3 
     name ltibia
     direction 0.34202 -0.939693 0   
     length 7.3685   
     axis 0 0 20   XYZ
    dof rx
    limits (-10.0 170.0)
  end
  begin
     id 4 
     name lfoot
     direction 0.105419 -0.289636 0.951314   
     length 2.20972   
     axis -90 7.62852e-016 20   XYZ
    dof rx rz
    limits (-45.0 90.0)
           (-70.0 20.0)
  end
  begin
     id 5 
     name ltoes
     direction 1.53549e-011 -4.21833e-011 1   
     length 1.10139   
     axis -90 7.62852e-016 20   XYZ
    dof rx
    limits (-90.0 20.0)
  end
  begin
     id 6 
     name rhipjoint
     direction -0.608823 -0.743445 0.276811   
     length 2.43192  
     axis 0 0 0  XYZ 
  end
  begin
     id 7 
     name rfemur
     direction -0.34202 -0.939693 0   
     length 7.69715   
     axis 0 0 -20   XYZ
    dof rx ry rz
    limits (-160.0 20.0)
           (-70.0 70.0)
           (-70.0 60.0)
  end
  begin
     id 8 
     name rtibia
     direction -0.34202 -0.939693 0   
     length 7.44924   
     axis 0 0 -20   XYZ
    dof rx
    limits (-10.0 170.0)
 end
 begin
     id 9 
     name rfoot
     direction -0.103614 -0.284677 0.953007   
     length 2.22623  
     axis -90 -7.62852e-016 -20   XYZ
    dof rx rz
    limits (-45.0 90.0)
           (-20.0 70.0)
  end
  begin
     id 10 
     name rtoes
     direction -1.53537e-011 -4.22026e-011 1   
     length 1.11   
     axis -90 -7.62852e-016 -20   XYZ
    dof rx
    limits (-90.0 20.0)
  end
  begin
     id 11 
     name lowerback
     direction -0.0101212 0.99662 -0.0815298   
     length 2.08277   
     axis 0 0 0   XYZ
    dof rx ry rz
    limits (-20.0 45.0)
           (-30.0 30.0)
           (-30.0 30.0)
  end
  begin
     id 12 
     name upperback
     direction 0.024314 0.999591 -0.0150645   
     length 2.08524   
     axis 0 0 0   XYZ
    dof rx ry rz
    limits (-20.0 45.0)
           (-30.0 30.0)
           (-30.0 30.0)
  end
  begin
     id 13 
     name thorax
     direction 0.0285959 0.999323 0.0231357   
     length 2.09645   
     axis 0 0 0   XYZ
    dof rx ry rz
    limits (-20.0 45.0)
           (-30.0 30.0)
           (-30.0 30.0)
  end
  begin
     id 14 
     name lowerneck
     direction -0.065512 0.979301 0.191515   
     length 1.63798   
     axis 0 0 0   XYZ
    dof rx ry rz
    limits (-20.0 45.0)
           (-30.0 30.0)
           (-30.0 30.0)
  end
  begin
     id 15 
     name upperneck
     direction 0.0498479 0.98191 -0.182667   
     length 1.68731   
     axis 0 0 0   XYZ
    dof rx ry rz
    limits (-20.0 45.0)
           (-30.0 30.0)
           (-30.0 30.0)
  end
  begin
     id 16
     name head
     direction 0.0230358 0.996257 -0.0833175  
     length 1.69785  
     axis 0 0 0   XYZ
    dof rx ry rz
    limits (-20.0 45.0)
           (-30.0 30.0)
           (-30.0 30.0)
  end
  begin
     id 17 
     name lclavicle
     direction 0.967963 0.201165 -0.150269  
     length 3.63976  
     axis 0 0 0   XYZ
    dof ry rz
    limits (-20.0 10.0)
           (0.0 20.0)
  end
  begin
     id 18 
     name lhumerus
     direction 1 -4.48954e-011 -2.92837e-028   
     length 5.32462   
     axis 180 -30 -90   XYZ
    dof rx ry rz
    limits (-60.0 90.0)
           (-90.0 90.0)
           (-90.0 90.0)
  end
  begin
     id 19
     name lradius
     direction 1 -4.48958e-011 -6.39511e-027   
     length 3.48402   
     axis 180 -30 -90   XYZ
    dof rx
    limits (-10.0 170.0)
  end
  begin
     id 20
     name lwrist
     direction 1 -4.48975e-011 -1.1413e-026   
     length 1.74201   
     axis 6.88575e-015 90 90   XYZ
    dof ry
    limits (-180.0 0.0)
 end
  begin
     id 21 
     name lhand
     direction 1 -4.48899e-011 -2.28192e-026   
     length 0.572476   
     axis 1.45643e-014 90 90   XYZ
    dof rx rz
    limits (-90.0 90.0)
           (-45.0 45.0)
  end
  begin
     id 22 
     name lfingers
     direction 1 -4.49155e-011 -4.5684e-026   
     length 0.461545   
     axis 2.91283e-014 90 90   XYZ
    dof rx
    limits (0.0 90.0)
  end
  begin
     id 23
     name lthumb
     direction 0.707107 -6.34943e-011 0.707107   
     length 0.662688   
     axis -90 45 -2.25915e-014   XYZ
    dof rx rz
    limits (-45.0 45.0)
           (-45.0 45.0)
  end
  begin
     id 24 
     name rclavicle
     direction -0.964103 0.264019 -0.0282629   
     length 3.54491  
     axis 0 0 0   XYZ 
    dof ry rz
    limits (-10.0 20.0)
           (-20.0 0.0)
  end
  begin
     id 25 
     name rhumerus
     direction -1 -4.48964e-011 -2.45032e-027  
     length 5.33589   
     axis 180 30 90   XYZ
    dof rx ry rz
    limits (-90.0 60.0)
           (-90.0 90.0)
           (-90.0 90.0)
  end
  begin
     id 26 
     name rradius
     direction -1 -4.48987e-011 -1.55093e-027   
     length 3.64134   
     axis 180 30 90   XYZ
    dof rx
    limits (-10.0 170.0)
  end
  begin
     id 27 
     name rwrist
     direction -1 -4.4897e-011 -1.14128e-026   
     length 1.82067   
     axis 6.88575e-015 -90 -90   XYZ
    dof ry
    limits (-180.0 0.0)
  end
  begin
     id 28
     name rhand
     direction -1 -4.49021e-011 -2.28301e-026   
     length 0.734811   
     axis 1.45643e-014 -90 -90   XYZ
    dof rx rz
    limits (-90.0 90.0)
           (-45.0 45.0)
  end
  begin
     id 29
     name rfingers
     direction -1 -4.48862e-011 -4.56319e-026   
     length 0.592424   
     axis 2.91283e-014 -90 -90   XYZ
    dof rx
    limits (0.0 90.0)
  end
  begin
     id 30
     name rthumb
     direction -0.707107 -6.34978e-011 0.707107   
     length 0.850605   
     axis -90 -45 2.25915e-014   XYZ
    dof rx rz
    limits (-45.0 45.0)
           (-45.0 45.0)
  end
:hierarchy
  begin
    root lhipjoint rhipjoint lowerback
    lhipjoint lfemur
    lfemur ltibia
    ltibia lfoot
    lfoot ltoes
    rhipjoint rfemur
    rfemur rtibia
    rtibia rfoot
    rfoot rtoes
    lowerback upperback
    upperback thorax
    thorax lowerneck lclavicle rclavicle
    lowerneck upperneck
    upperneck head
    lclavicle lhumerus
    lhumerus lradius
    lradius lwrist
    lwrist lhand lthumb
    lhand lfingers
    rclavicle rhumerus
    rhumerus rradius
    rradius rwrist
    rwrist rhand rthumb
    rhand rfingers
  end

#!OML:ASF F:\VICON\USERDATA\INSTALL\rory3\rory3.ASF
:FULLY-SPECIFIED
:DEGREES
165
root -1.11404 17.7132 -0.296091 377.091 11.7992 354.585
lowerback 11.3239 1.01307 -1.33881
upperback 6.38277 1.26118 2.39783
thorax 0.231523 0.566988 3.10487
lowerneck -8.62114 4.30531 -10.3901
upperneck 40.3668 10.3177 -2.06093
head 15.4023 2.63482 2.47614
rclavicle -4.47266e-015 -3.37934e-015
rhumerus -16.0856 8.50138 -82.0295
rradius 53.5957
rwrist 17.1324
rhand -24.3066 5.8908
rfingers 7.12502
rthumb 2.18125 -24.0778
lclavicle -4.47266e-015 -3.37934e-015
lhumerus -24.1671 -25.1764 90.0067
lradius 53.1581
lwrist -6.04663
lhand -25.9362 18.9172
lfingers 7.12502
lthumb 0.607326 48.8961
rfemur -35.3231 3.41999 15.1686
rtibia 37.2286
rfoot -17.454 -8.37251
rtoes 0.519561
lfemur -38.6447 -2.91011 -4.12796
ltibia 30.0278
lfoot -5.7235 -0.0562904
ltoes -42.6737
166
root -1.06771 17.7198 -0.341551 377.244 10.8417 354.432
lowerback 11.347 1.14555 -1.42466
upperback 6.40232 1.42367 2.35505
thorax 0.228238 0.645158 3.09051
lowerneck -8.43563 4.24157 -10.2959
upperneck 40.3679 10.2003 -2.1825
head 15.382 2.5834 2.38472
rclavicle -2.08724e-014 -1.02374e-014
rhumerus -16.1818 8.84421 -82.1421
rradius 53.548
rwrist 17.5487
rhand -24.1908 6.18829
rfingers 7.12502
rthumb 2.29305 -23.7791
lclavicle -2.08724e-014 -1.02374e-014
lhumerus -24.4217 -25.6659 90.1851
lradius 53.3519
lwrist -5.74586
lhand -26.2009 18.305
lfingers 7.12502
lthumb 0.351723 48.2844
rfemur -35.3687 2.66042 15.4959
rtibia 38.0352
rfoot -16.6832 -8.38008
rtoes 0.760925
lfemur -38.6089 -2.41933 -4.26105
ltibia 29.9535
lfoot -5.61143 0.248259
ltoes -42.4664
167
root -1.02481 17.7337 -0.384324 377.457 9.70831 354.337
lowerback 11.2956 1.45489 -1.58535
upperback 6.32175 1.81078 2.19313
thorax 0.147106 0.837026 2.96862
lowerneck -8.01054 4.06669 -9.81046
upperneck 40.3964 9.8221 -2.35993
head 15.3498 2.47853 2.16132
rclavicle 1.59028e-015 -1.39149e-014
rhumerus -16.6026 8.75949 -82.3872
rradius 53.6306
rwrist 17.8073
rhand -23.6294 6.11085
rfingers 7.12502
rthumb 2.83527 -23.85
lclavicle 1.59028e-015 -1.39149e-014
lhumerus -24.782 -26.5174 90.3711
lradius 53.6876
lwrist -5.52781
lhand -25.6513 18.4658
lfingers 7.12502
lthumb 0.882542 48.4437
rfemur -35.5903 2.13638 15.6602
rtibia 38.9309
rfoot -15.5643 -8.76451
rtoes 0.660598
lfemur -38.5152 -1.81498 -4.48955
ltibia 29.8316
lfoot -5.48699 0.648862
ltoes -42.2893
168
root -0.978371 17.763 -0.422202 377.665 8.81813 354.248
lowerback 11.1429 1.62253 -1.58495
upperback 6.3666 2.02811 2.07302
thorax 0.266703 0.944279 2.82325
lowerneck -7.90753 3.90795 -9.60787
upperneck 40.3667 9.52468 -2.40843
head 15.3335 2.37708 2.06178
rclavicle 3.27995e-015 -4.34344e-014
rhumerus -16.8081 8.79902 -82.5471
rradius 53.7344
rwrist 18.1871
rhand -23.4473 6.01669
rfingers 7.12502
rthumb 3.01113 -23.9418
lclavicle 3.27995e-015 -4.34344e-014
lhumerus -24.7844 -27.1089 90.414
lradius 54.013
lwrist -5.78096
lhand -24.3783 19.0521
lfingers 7.12502
lthumb 2.11205 49.0214
rfemur -35.9318 1.40091 15.8856
rtibia 39.869
rfoot -14.0426 -9.58425
rtoes -1.62353
lfemur -38.4452 -1.40697 -4.67422
ltibia 29.6734
lfoot -5.3644 1.02812
ltoes -42.1987
169
root -0.929829 17.7752 -0.462233 377.797 8.20749 354.297
lowerback 11.1417 1.67491 -1.52989
upperback 6.3712 2.09872 1.94384
thorax 0.273938 0.981978 2.65014
lowerneck -7.67917 3.75806 -9.42422
upperneck 40.2672 9.2341 -2.49848
head 15.2545 2.27893 1.94265
rclavicle 1.94809e-014 -9.34288e-015
rhumerus -17.0682 8.76093 -82.7093
rradius 53.7729
rwrist 18.6798
rhand -23.64 6.24843
rfingers 7.12502
rthumb 2.825 -23.7126
lclavicle 1.94809e-014 -9.34288e-015
lhumerus -24.8564 -27.6873 90.5151
lradius 54.2448
lwrist -6.07156
lhand -23.0487 19.7002
lfingers 7.12502
lthumb 3.3961 49.6529
rfemur -35.7651 0.512298 15.9582
rtibia 40.8236
rfoot -13.8157 -9.56631
rtoes -1.38991
lfemur -38.4805 -1.23895 -4.94945
ltibia 29.6819
lfoot -5.28849 1.32064
ltoes -42.0163
170
root -0.884406 17.7819 -0.50122 377.838 7.55779 354.378
lowerback 11.2295 1.7351 -1.54641
upperback 6.3847 2.17217 1.81912
thorax 0.240204 1.01959 2.51958
lowerneck -7.54477 3.61713 -9.15731
upperneck 40.2721 8.99658 -2.66529
head 15.2588 2.19534 1.79055
rclavicle -7.95139e-016 -1.59028e-015
rhumerus -17.3097 8.74207 -82.8887
rradius 53.8072
rwrist 19.0802
rhand -23.499 6.48569
rfingers 7.12502
rthumb 2.96116 -23.4735
lclavicle -7.95139e-016 -1.59028e-015
lhumerus -24.9668 -28.3379 90.6554
lradius 54.3862
lwrist -5.85605
lhand -22.108 19.8857
lfingers 7.12502
lthumb 4.3045 49.8219
rfemur -35.5072 -0.31922 15.9922
rtibia 41.7597
rfoot -14.0303 -9.84727
rtoes -3.45788
lfemur -38.4424 -1.02872 -5.27946
ltibia 29.7492
lfoot -5.2363 1.57095
ltoes -41.8104
171
root -0.842966 17.7592 -0.53884 377.839 6.93322 354.374
lowerback 11.2807 1.78011 -1.44976
upperback 6.43931 2.23671 1.73243
thorax 0.27249 1.05393 2.36759
lowerneck -7.53015 3.49511 -9.04741
upperneck 40.3613 8.77678 -2.64117
head 15.3094 2.11242 1.75267
rclavicle 4.18442e-014 4.77083e-015
rhumerus -17.4816 8.79924 -83.0337
rradius 53.8427
rwrist 19.3267
rhand -23.4072 6.62254
rfingers 7.12502
rthumb 3.04986 -23.3354
lclavicle 4.18442e-014 4.77083e-015
lhumerus -25.0426 -28.9706 90.8356
lradius 54.3917
lwrist -5.79619
lhand -21.4646 19.5749
lfingers 7.12502
lthumb 4.92575 49.4976
rfemur -34.9349 -1.13012 16.0847
rtibia 42.6752
rfoot -14.8164 -9.8995
rtoes -1.52646
lfemur -38.4937 -0.761401 -5.4977
ltibia 29.9661
lfoot -5.28573 1.80838
ltoes -41.706
172
root -0.802618 17.7565 -0.578288 377.824 6.40109 354.482
lowerback 11.378 1.78674 -1.37625
upperback 6.50612 2.24819 1.61186
thorax 0.296271 1.06203 2.19838
lowerneck -7.56653 3.35943 -9.01331
upperneck 40.4727 8.50574 -2.46865
head 15.3689 2.0132 1.78493
rclavicle -1.36167e-014 -2.5842e-015
rhumerus -17.6405 8.85134 -83.1911
rradius 53.8497
rwrist 19.5484
rhand -23.6539 6.78742
rfingers 7.12502
rthumb 2.81158 -23.1738
lclavicle -1.36167e-014 -2.5842e-015
lhumerus -25.0521 -29.6136 91.0004
lradius 54.2221
lwrist -5.99881
lhand -21.4029 18.9802
lfingers 7.12502
lthumb 4.98529 48.9015
rfemur -34.5152 -2.05722 16.0574
rtibia 43.5614
rfoot -14.9272 -10.4119
rtoes 2.13837
lfemur -38.5368 -0.507675 -5.86254
ltibia 30.1677
lfoot -5.36305 1.9188
ltoes -41.4827
173
root -0.763711 17.7633 -0.617592 377.827 5.96023 354.569
lowerback 11.4546 1.73775 -1.29267
upperback 6.52924 2.18874 1.53575
thorax 0.287558 1.03514 2.0774
lowerneck -7.41811 3.26872 -8.99071
upperneck 40.4109 8.25521 -2.30342
head 15.295 1.9353 1.80906
rclavicle 1.55052e-014 -1.45113e-014
rhumerus -17.8367 9.00115 -83.3384
rradius 53.863
rwrist 19.7437
rhand -23.7236 6.64021
rfingers 7.12502
rthumb 2.74431 -23.3219
lclavicle 1.55052e-014 -1.45113e-014
lhumerus -25.1449 -30.0926 91.2019
lradius 54.0504
lwrist -6.17157
lhand -21.7832 18.5405
lfingers 7.12502
lthumb 4.6181 48.4702
rfemur -34.151 -2.96604 16.0222
rtibia 44.4056
rfoot -14.736 -11.3148
rtoes 5.32951
lfemur -38.6196 -0.341106 -6.16605
ltibia 30.3642
lfoot -5.40757 2.03677
ltoes -41.2865
